<svg width="150" height="48" viewBox="0 0 150 48" fill="none" xmlns="http://www.w3.org/2000/svg">
<g clip-path="url(#clip0_2145_6655)">
<path d="M62.2446 5.90625H82.9158V21.7136H78.052V9.99627H67.1084V21.7136H62.2446V5.90625Z" fill="#472795"/>
<path d="M102.055 5.90625H107.538L101.878 15.9655C100.802 17.8963 100.183 18.9796 100.021 19.2154C99.4165 20.1145 98.7385 20.7409 97.9869 21.0946C97.1173 21.5073 95.9087 21.7136 94.3611 21.7136H89.3204V17.6236H94.6043C94.9433 17.6236 95.1644 17.6015 95.2676 17.5573C95.3855 17.4983 95.5034 17.3583 95.6213 17.1372L85.341 5.90625H92.084L97.6773 12.4945C97.7216 12.5387 97.8247 12.8556 97.9869 13.4451C98.0606 13.6957 98.1269 13.821 98.1858 13.821C98.2301 13.821 98.2595 13.5925 98.2743 13.1356C98.3037 12.6787 98.3774 12.3545 98.4954 12.1629L102.055 5.90625Z" fill="#472795"/>
<path d="M109.307 9.99627V5.90625H128.121V9.99627H121.157V21.7136H116.293V9.99627H109.307Z" fill="#472795"/>
<path d="M131.361 21.7136V5.90625H136.225V9.77519H143.255C145.849 9.77519 147.566 10.0921 148.406 10.7258C149.453 11.5217 149.976 13.1946 149.976 15.7444C149.976 18.309 149.46 19.9818 148.428 20.763C147.588 21.3967 145.864 21.7136 143.255 21.7136H131.361ZM136.225 13.8652V17.6236H143.255C143.845 17.6236 144.279 17.5057 144.56 17.2699C144.913 16.9751 145.09 16.4666 145.09 15.7444C145.09 15.0517 144.913 14.5506 144.56 14.241C144.265 13.9905 143.83 13.8652 143.255 13.8652H136.225Z" fill="#472795"/>
<path d="M65.5465 32.1761C64.3717 32.1761 63.5499 32.1016 63.081 31.9527C62.6122 31.7983 62.3144 31.5087 62.1875 31.084C62.0992 30.7917 62.0551 30.1877 62.0551 29.2721C62.0551 28.34 62.0965 27.736 62.1792 27.4602C62.3061 27.03 62.6067 26.7377 63.081 26.5832C63.5554 26.4288 64.3772 26.3516 65.5465 26.3516C66.7214 26.3516 67.5404 26.4288 68.0038 26.5832C68.4726 26.7321 68.7732 27.0217 68.9056 27.4519C68.9938 27.7443 69.0379 28.351 69.0379 29.2721C69.0379 30.1987 68.9966 30.7999 68.9138 31.0757C68.787 31.5059 68.4891 31.7983 68.0203 31.9527C67.5515 32.1016 66.7269 32.1761 65.5465 32.1761ZM65.5465 31.4149C66.8482 31.4149 67.6149 31.3184 67.8466 31.1254C68.0782 30.9323 68.194 30.3146 68.194 29.2721C68.194 28.2241 68.0782 27.6036 67.8466 27.4106C67.6204 27.2175 66.8537 27.121 65.5465 27.121C64.2393 27.121 63.4699 27.2175 63.2382 27.4106C63.0121 27.6036 62.899 28.2241 62.899 29.2721C62.899 30.309 63.0148 30.9268 63.2465 31.1254C63.4782 31.3184 64.2448 31.4149 65.5465 31.4149Z" fill="#696969"/>
<path d="M71.0576 29.2721C71.0576 30.3035 71.168 30.9185 71.3886 31.1171C71.6092 31.3157 72.2876 31.4149 73.4239 31.4149C74.4773 31.4149 75.1199 31.357 75.3516 31.2412C75.6218 31.1033 75.757 30.731 75.757 30.1243H76.6009C76.6009 31.0233 76.4133 31.5914 76.0383 31.8286C75.6632 32.0603 74.7917 32.1761 73.4239 32.1761C72.0284 32.1761 71.1459 32.0106 70.7763 31.6797C70.4068 31.3487 70.222 30.5462 70.222 29.2721C70.222 27.987 70.404 27.1789 70.7681 26.848C71.1321 26.517 72.0174 26.3516 73.4239 26.3516C74.8028 26.3516 75.677 26.4674 76.0466 26.699C76.4161 26.9307 76.6009 27.4988 76.6009 28.4034H75.757C75.757 27.7967 75.6329 27.4326 75.3847 27.3113C75.1365 27.1844 74.4829 27.121 73.4239 27.121C72.2821 27.121 71.6009 27.2203 71.3803 27.4188C71.1652 27.6119 71.0576 28.2296 71.0576 29.2721Z" fill="#696969"/>
<path d="M81.2371 32.1761C80.0622 32.1761 79.2404 32.1016 78.7716 31.9527C78.3027 31.7983 78.0049 31.5087 77.878 31.084C77.7898 30.7917 77.7457 30.1877 77.7457 29.2721C77.7457 28.34 77.787 27.736 77.8698 27.4602C77.9966 27.03 78.2972 26.7377 78.7716 26.5832C79.2459 26.4288 80.0677 26.3516 81.2371 26.3516C82.4119 26.3516 83.231 26.4288 83.6943 26.5832C84.1631 26.7321 84.4637 27.0217 84.5961 27.4519C84.6843 27.7443 84.7285 28.351 84.7285 29.2721C84.7285 30.1987 84.6871 30.7999 84.6044 31.0757C84.4775 31.5059 84.1797 31.7983 83.7108 31.9527C83.242 32.1016 82.4174 32.1761 81.2371 32.1761ZM81.2371 31.4149C82.5388 31.4149 83.3054 31.3184 83.5371 31.1254C83.7688 30.9323 83.8846 30.3146 83.8846 29.2721C83.8846 28.2241 83.7688 27.6036 83.5371 27.4106C83.311 27.2175 82.5443 27.121 81.2371 27.121C79.9299 27.121 79.1604 27.2175 78.9288 27.4106C78.7026 27.6036 78.5896 28.2241 78.5896 29.2721C78.5896 30.309 78.7054 30.9268 78.937 31.1254C79.1687 31.3184 79.9354 31.4149 81.2371 31.4149Z" fill="#696969"/>
<path d="M92.3493 27.9814C92.3493 28.351 92.2997 28.6268 92.2004 28.8088C92.1066 28.9908 91.9522 29.1452 91.7371 29.2721C91.9412 29.3824 92.0928 29.5369 92.1921 29.7354C92.2969 29.9285 92.3493 30.1849 92.3493 30.5049C92.3493 31.0454 92.2252 31.4398 91.977 31.688C91.7564 31.9086 91.3924 32.052 90.8849 32.1182C90.5871 32.1568 90.0052 32.1761 89.1392 32.1761C87.7713 32.1761 86.8999 32.0603 86.5248 31.8286C86.1497 31.5914 85.9622 31.0233 85.9622 30.1243H86.8061C86.8061 30.731 86.9412 31.1033 87.2115 31.2412C87.4431 31.357 88.0857 31.4149 89.1392 31.4149C90.0603 31.4149 90.6836 31.357 91.009 31.2412C91.34 31.1198 91.5054 30.8744 91.5054 30.5049C91.5054 30.1518 91.3841 29.9064 91.1414 29.7685C90.9483 29.6582 90.6505 29.603 90.2479 29.603H87.6417V28.8419H90.2479C90.6726 28.8419 90.9732 28.795 91.1497 28.7012C91.3868 28.5744 91.5054 28.3344 91.5054 27.9814C91.5054 27.6119 91.3482 27.3775 91.0338 27.2782C90.7194 27.1734 90.0879 27.121 89.1392 27.121C88.0802 27.121 87.4266 27.1844 87.1784 27.3113C86.9302 27.4326 86.8061 27.7967 86.8061 28.4034H85.9622C85.9622 27.4988 86.147 26.9307 86.5165 26.699C86.8861 26.4674 87.7603 26.3516 89.1392 26.3516C89.8287 26.3516 90.3251 26.3709 90.6284 26.4095C91.1579 26.4757 91.5633 26.6191 91.8446 26.8397C92.1811 27.0989 92.3493 27.4795 92.3493 27.9814Z" fill="#696969"/>
<path d="M93.566 26.4343H94.4099V28.8336H99.283V26.4343H100.127V32.0934H99.283V29.5948H94.4099V32.0934H93.566V26.4343Z" fill="#696969"/>
<path d="M105.35 26.4343L108.328 32.0934H107.377L106.707 30.8358H102.669L102.007 32.0934H101.056L104.034 26.4343H105.35ZM106.343 30.0829L104.804 27.1127H104.589L103.05 30.0829H106.343Z" fill="#696969"/>
<path d="M109.257 26.4343H110.1V28.8336H114.974V26.4343H115.817V32.0934H114.974V29.5948H110.1V32.0934H109.257V26.4343Z" fill="#696969"/>
<path d="M117.094 26.4343H117.938V28.8336H122.811V26.4343H123.655V32.0934H122.811V29.5948H117.938V32.0934H117.094V26.4343Z" fill="#696969"/>
<path d="M128.398 32.1761C127.223 32.1761 126.401 32.1016 125.932 31.9527C125.463 31.7983 125.165 31.5087 125.039 31.084C124.95 30.7917 124.906 30.1877 124.906 29.2721C124.906 28.34 124.947 27.736 125.03 27.4602C125.157 27.03 125.458 26.7377 125.932 26.5832C126.406 26.4288 127.228 26.3516 128.398 26.3516C129.572 26.3516 130.391 26.4288 130.855 26.5832C131.324 26.7321 131.624 27.0217 131.757 27.4519C131.845 27.7443 131.889 28.351 131.889 29.2721C131.889 30.1987 131.848 30.7999 131.765 31.0757C131.638 31.5059 131.34 31.7983 130.871 31.9527C130.402 32.1016 129.578 32.1761 128.398 32.1761ZM128.398 31.4149C129.699 31.4149 130.466 31.3184 130.698 31.1254C130.929 30.9323 131.045 30.3146 131.045 29.2721C131.045 28.2241 130.929 27.6036 130.698 27.4106C130.471 27.2175 129.705 27.121 128.398 27.121C127.09 27.121 126.321 27.2175 126.089 27.4106C125.863 27.6036 125.75 28.2241 125.75 29.2721C125.75 30.309 125.866 30.9268 126.098 31.1254C126.329 31.3184 127.096 31.4149 128.398 31.4149Z" fill="#696969"/>
<path d="M133.081 32.0934V26.4343H138.261V27.1955H133.917V32.0934H133.081Z" fill="#696969"/>
<path d="M142.658 32.1761C141.483 32.1761 140.661 32.1016 140.192 31.9527C139.724 31.7983 139.426 31.5087 139.299 31.084C139.211 30.7917 139.167 30.1877 139.167 29.2721C139.167 28.34 139.208 27.736 139.291 27.4602C139.418 27.03 139.718 26.7377 140.192 26.5832C140.667 26.4288 141.489 26.3516 142.658 26.3516C143.833 26.3516 144.652 26.4288 145.115 26.5832C145.584 26.7321 145.885 27.0217 146.017 27.4519C146.105 27.7443 146.149 28.351 146.149 29.2721C146.149 30.1987 146.108 30.7999 146.025 31.0757C145.898 31.5059 145.601 31.7983 145.132 31.9527C144.663 32.1016 143.838 32.1761 142.658 32.1761ZM142.658 31.4149C143.96 31.4149 144.726 31.3184 144.958 31.1254C145.19 30.9323 145.306 30.3146 145.306 29.2721C145.306 28.2241 145.19 27.6036 144.958 27.4106C144.732 27.2175 143.965 27.121 142.658 27.121C141.351 27.121 140.581 27.2175 140.35 27.4106C140.124 27.6036 140.01 28.2241 140.01 29.2721C140.01 30.309 140.126 30.9268 140.358 31.1254C140.59 31.3184 141.356 31.4149 142.658 31.4149Z" fill="#696969"/>
<path d="M68.4257 37.0071C68.4257 37.3766 68.3761 37.6524 68.2768 37.8344C68.183 38.0164 68.0286 38.1709 67.8135 38.2977C68.0175 38.408 68.1692 38.5625 68.2685 38.761C68.3733 38.9541 68.4257 39.2106 68.4257 39.5305C68.4257 40.071 68.3016 40.4654 68.0534 40.7136C67.8328 40.9342 67.4687 41.0776 66.9613 41.1438C66.6635 41.1824 66.0816 41.2017 65.2156 41.2017C63.8477 41.2017 62.9762 41.0859 62.6012 40.8542C62.2261 40.6171 62.0386 40.0489 62.0386 39.1499H62.8825C62.8825 39.7566 63.0176 40.1289 63.2879 40.2668C63.5195 40.3826 64.1621 40.4406 65.2156 40.4406C66.1367 40.4406 66.76 40.3826 67.0854 40.2668C67.4163 40.1455 67.5818 39.9 67.5818 39.5305C67.5818 39.1775 67.4605 38.932 67.2178 38.7941C67.0247 38.6838 66.7269 38.6287 66.3242 38.6287H63.7181V37.8675H66.3242C66.7489 37.8675 67.0495 37.8206 67.226 37.7269C67.4632 37.6 67.5818 37.3601 67.5818 37.0071C67.5818 36.6375 67.4246 36.4031 67.1102 36.3038C66.7958 36.199 66.1643 36.1466 65.2156 36.1466C64.1566 36.1466 63.503 36.21 63.2548 36.3369C63.0066 36.4582 62.8825 36.8223 62.8825 37.429H62.0386C62.0386 36.5244 62.2233 35.9563 62.5929 35.7247C62.9624 35.493 63.8367 35.3772 65.2156 35.3772C65.905 35.3772 66.4015 35.3965 66.7048 35.4351C67.2343 35.5013 67.6397 35.6447 67.921 35.8653C68.2575 36.1246 68.4257 36.5051 68.4257 37.0071Z" fill="#696969"/>
<path d="M70.4201 37.3545V35.4682H76.1206V40.3578H76.526V42.4841H75.7483V41.119H70.3788V42.4841H69.6011V40.3578H70.0147C70.1195 39.9938 70.2133 39.4946 70.296 38.8603C70.3788 38.2205 70.4201 37.7186 70.4201 37.3545ZM75.2767 36.2294H71.264V37.3545C71.264 37.7848 71.2309 38.295 71.1647 38.8851C71.0986 39.4753 71.0131 39.9662 70.9083 40.3578H75.2767V36.2294Z" fill="#696969"/>
<path d="M81.1159 41.2017C79.941 41.2017 79.1192 41.1273 78.6504 40.9783C78.1815 40.8239 77.8837 40.5343 77.7568 40.1096C77.6686 39.8173 77.6245 39.2133 77.6245 38.2977C77.6245 37.3656 77.6658 36.7616 77.7486 36.4858C77.8754 36.0556 78.176 35.7633 78.6504 35.6088C79.1247 35.4544 79.9466 35.3772 81.1159 35.3772C82.2907 35.3772 83.1098 35.4544 83.5731 35.6088C84.0419 35.7578 84.3425 36.0473 84.4749 36.4776C84.5632 36.7699 84.6073 37.3766 84.6073 38.2977C84.6073 39.2244 84.5659 39.8256 84.4832 40.1013C84.3563 40.5316 84.0585 40.8239 83.5896 40.9783C83.1208 41.1273 82.2962 41.2017 81.1159 41.2017ZM81.1159 40.4406C82.4176 40.4406 83.1842 40.344 83.4159 40.151C83.6476 39.9579 83.7634 39.3402 83.7634 38.2977C83.7634 37.2497 83.6476 36.6292 83.4159 36.4362C83.1898 36.2431 82.4231 36.1466 81.1159 36.1466C79.8087 36.1466 79.0392 36.2431 78.8076 36.4362C78.5814 36.6292 78.4684 37.2497 78.4684 38.2977C78.4684 39.3347 78.5842 39.9524 78.8158 40.151C79.0475 40.344 79.8142 40.4406 81.1159 40.4406Z" fill="#696969"/>
<path d="M85.8493 41.119V35.4599H90.4659C90.9678 35.4599 91.3594 35.6088 91.6407 35.9067C91.9275 36.2045 92.0709 36.6568 92.0709 37.2635C92.0709 37.8703 91.9248 38.3225 91.6324 38.6204C91.3456 38.9127 90.9457 39.0589 90.4328 39.0589H86.6932V41.119H85.8493ZM86.6932 38.2977H90.4328C90.6755 38.2977 90.8685 38.215 91.0119 38.0495C91.1553 37.884 91.227 37.6221 91.227 37.2635C91.227 36.905 91.1553 36.643 91.0119 36.4776C90.874 36.3066 90.6782 36.2211 90.4245 36.2211H86.6932V38.2977Z" fill="#696969"/>
<path d="M96.8145 41.2017C95.6397 41.2017 94.8178 41.1273 94.349 40.9783C93.8802 40.8239 93.5823 40.5343 93.4555 40.1096C93.3672 39.8173 93.3231 39.2133 93.3231 38.2977C93.3231 37.3656 93.3644 36.7616 93.4472 36.4858C93.574 36.0556 93.8746 35.7633 94.349 35.6088C94.8233 35.4544 95.6452 35.3772 96.8145 35.3772C97.9893 35.3772 98.8084 35.4544 99.2717 35.6088C99.7405 35.7578 100.041 36.0473 100.174 36.4776C100.262 36.7699 100.306 37.3766 100.306 38.2977C100.306 39.2244 100.265 39.8256 100.182 40.1013C100.055 40.5316 99.7571 40.8239 99.2883 40.9783C98.8194 41.1273 97.9948 41.2017 96.8145 41.2017ZM96.8145 40.4406C98.1162 40.4406 98.8829 40.344 99.1145 40.151C99.3462 39.9579 99.462 39.3402 99.462 38.2977C99.462 37.2497 99.3462 36.6292 99.1145 36.4362C98.8884 36.2431 98.1217 36.1466 96.8145 36.1466C95.5073 36.1466 94.7378 36.2431 94.5062 36.4362C94.28 36.6292 94.167 37.2497 94.167 38.2977C94.167 39.3347 94.2828 39.9524 94.5145 40.151C94.7461 40.344 95.5128 40.4406 96.8145 40.4406Z" fill="#696969"/>
<path d="M107.861 39.4643C107.861 40.0214 107.706 40.4378 107.397 40.7136C107.094 40.9838 106.647 41.119 106.057 41.119H101.515V35.4599H105.858C106.438 35.4599 106.882 35.5978 107.19 35.8736C107.499 36.1494 107.654 36.5465 107.654 37.065C107.654 37.6331 107.441 37.9971 107.017 38.1571C107.259 38.2398 107.452 38.3777 107.596 38.5707C107.772 38.8079 107.861 39.1058 107.861 39.4643ZM106.818 37.065C106.818 36.8057 106.752 36.6072 106.62 36.4693C106.46 36.3038 106.206 36.2211 105.858 36.2211H102.359V37.8261H105.858C106.217 37.8261 106.465 37.7655 106.603 37.6441C106.746 37.5173 106.818 37.3242 106.818 37.065ZM102.359 38.5873V40.3578H106.049C106.369 40.3578 106.609 40.2778 106.768 40.1179C106.934 39.9524 107.017 39.7373 107.017 39.4726C107.017 39.2133 106.934 39.001 106.768 38.8355C106.603 38.67 106.363 38.5873 106.049 38.5873H102.359Z" fill="#696969"/>
<path d="M109.291 35.4599H110.135V37.5283H113.866C114.379 37.5283 114.776 37.6689 115.058 37.9502C115.361 38.2536 115.513 38.7086 115.513 39.3154C115.513 39.9276 115.372 40.3826 115.091 40.6805C114.815 40.9728 114.421 41.119 113.908 41.119H109.291V35.4599ZM110.135 38.2977V40.3578H113.866C114.114 40.3578 114.31 40.2751 114.454 40.1096C114.597 39.9386 114.669 39.6739 114.669 39.3154C114.669 38.9624 114.597 38.7059 114.454 38.5459C114.316 38.3805 114.123 38.2977 113.875 38.2977H110.135Z" fill="#696969"/>
<path d="M123.329 35.4599L123.337 41.119H122.493V39.0754H118.514C118.265 39.0754 118.05 39.1389 117.868 39.2657C117.692 39.3871 117.603 39.5415 117.603 39.729V41.119H116.76V39.729C116.76 39.4533 116.84 39.2244 117 39.0423C117.121 38.9044 117.284 38.7941 117.488 38.7114C117.256 38.6121 117.088 38.4825 116.983 38.3225C116.834 38.0909 116.76 37.7379 116.76 37.2635C116.76 36.7175 116.889 36.2817 117.148 35.9563C117.408 35.6254 117.777 35.4599 118.257 35.4599H123.329ZM122.493 38.306V36.2211H118.596C118.293 36.2211 118.07 36.2735 117.926 36.3783C117.711 36.5382 117.603 36.8333 117.603 37.2635C117.603 37.6882 117.708 37.9806 117.918 38.1405C118.067 38.2508 118.293 38.306 118.596 38.306H122.493Z" fill="#696969"/>
<g clip-path="url(#clip1_2145_6655)">
<path fill-rule="evenodd" clip-rule="evenodd" d="M13.2437 34.7471C16.9955 32.8254 19.4515 30.8239 19.4515 30.8239C32.6507 39.0993 40.6291 33.7787 40.6291 33.7787C41.2027 34.4415 41.8917 35.0121 42.6566 35.5032C43.7135 33.3526 44.3071 30.9331 44.3071 28.375C44.3071 19.4373 37.0617 12.1919 28.124 12.1919C19.1863 12.1919 11.9409 19.4373 11.9409 28.375C11.9409 30.6375 12.4052 32.7915 13.2437 34.7471Z" fill="url(#paint0_linear_2145_6655)"/>
<path d="M0.605469 37.6968C0.605469 37.6968 10.9716 39.5424 19.4934 31.4324C19.4934 31.4324 28.9606 38.7478 40.4293 34.6392C40.4293 34.6392 46.3954 39.6772 54.8971 38.89C54.8971 38.89 48.7835 40.2651 41.536 39.5424C34.2885 38.8197 27.4131 34.6694 19.2003 37.0053C10.9875 39.3411 7.92319 40.4659 0.605469 37.6968Z" fill="#472795"/>
<path d="M6.6052 40.2378C6.6052 40.2378 10.6844 41.0854 15.1611 39.6892C19.6378 38.2929 24.2427 36.7901 28.287 37.8232C28.287 37.8232 24.3162 37.955 18.5781 40.2378C12.8399 42.5207 9.63611 41.387 6.6052 40.2378Z" fill="#472795"/>
<path d="M45.1482 41.661C45.1482 41.661 40.0108 39.2074 33.4438 39.0352C27.6789 38.8843 26.4335 41.7929 15.0163 42.2648C15.0163 42.2648 20.2664 43.918 28.5694 41.4766C36.7836 39.0615 45.1482 41.661 45.1482 41.661Z" fill="#472795"/>
<path d="M45.4624 8.80982C45.4227 8.84091 45.3848 8.87432 45.349 8.90986C45.2933 8.96497 45.2424 9.02474 45.1969 9.0885L40.3428 15.85L47.1172 11.0047C47.3647 10.8289 47.5464 10.5758 47.6338 10.2854C47.6477 10.2385 47.6591 10.1915 47.6678 10.1443C47.6726 10.1204 47.6762 10.0966 47.6797 10.0722C47.6894 10.0004 47.6934 9.9279 47.6917 9.85545C47.6843 9.50221 47.5399 9.1656 47.289 8.91641C47.0391 8.66635 46.702 8.52234 46.3482 8.51447C46.2756 8.5127 46.203 8.51688 46.1311 8.52698C45.8867 8.55933 45.6557 8.65706 45.4624 8.80982ZM36.856 6.46131L35.787 12.7732L38.8294 7.14074C38.9023 7.00573 38.945 6.8565 38.9543 6.70341C38.9637 6.55032 38.9396 6.39702 38.8837 6.25415C38.8278 6.11128 38.7414 5.98226 38.6306 5.87604C38.5198 5.76981 38.3871 5.68892 38.2418 5.63898C38.0967 5.58966 37.9427 5.57234 37.7902 5.58823C37.6378 5.60413 37.4906 5.65284 37.3589 5.73102C37.2271 5.8092 37.1139 5.91498 37.0271 6.04106C36.9403 6.16714 36.882 6.31052 36.856 6.46131ZM29.3396 2.75217C29.3722 2.5554 29.3614 2.35391 29.3081 2.16171C29.2548 1.9695 29.1602 1.79119 29.0309 1.63916C28.9015 1.48713 28.7406 1.36502 28.5593 1.28134C28.3779 1.19765 28.1805 1.15438 27.9807 1.15454C27.781 1.15455 27.5837 1.19795 27.4025 1.28171C27.2212 1.36548 27.0605 1.4876 26.9313 1.63961C26.8021 1.79162 26.7076 1.96987 26.6544 2.16199C26.6011 2.35411 26.5904 2.5555 26.6229 2.75217L27.9807 10.96L29.3396 2.75217ZM45.6205 28.0332L53.8426 29.389C54.0396 29.4213 54.2412 29.4105 54.4336 29.3572C54.6259 29.3039 54.8043 29.2096 54.9565 29.0806C55.1086 28.9516 55.2308 28.7912 55.3147 28.6104C55.3985 28.4296 55.4419 28.2327 55.4419 28.0335C55.4419 27.8342 55.3985 27.6374 55.3147 27.4566C55.2308 27.2757 55.1086 27.1153 54.9565 26.9863C54.8043 26.8574 54.6259 26.763 54.4336 26.7097C54.2412 26.6565 54.0396 26.6456 53.8426 26.6779L45.6205 28.0332ZM44.4274 22.1536L50.5718 20.3195C50.7192 20.276 50.8554 20.2009 50.9709 20.0994C51.0863 19.998 51.1782 19.8726 51.2401 19.7321C51.3021 19.5916 51.3326 19.4393 51.3296 19.2858C51.3265 19.1323 51.29 18.9813 51.2226 18.8434C51.1553 18.7055 51.0587 18.5839 50.9395 18.4871C50.8203 18.3903 50.6815 18.3205 50.5326 18.2827C50.3836 18.2448 50.2283 18.2398 50.0772 18.2679C49.9262 18.2961 49.7831 18.3567 49.6579 18.4456L44.4274 22.1536ZM10.8766 28.5673L2.65381 27.212C2.45674 27.1794 2.25493 27.1901 2.0624 27.2432C1.86986 27.2963 1.69121 27.3906 1.53886 27.5196C1.38651 27.6485 1.26411 27.809 1.18017 27.99C1.09622 28.1709 1.05273 28.3679 1.05273 28.5673C1.05273 28.7667 1.09622 28.9637 1.18017 29.1446C1.26411 29.3256 1.38651 29.4861 1.53886 29.615C1.69121 29.744 1.86986 29.8383 2.0624 29.8914C2.25493 29.9445 2.45674 29.9552 2.65381 29.9226L10.8766 28.5673ZM21.1968 6.10582C21.1528 5.95882 21.0773 5.82314 20.9755 5.7082C20.8737 5.59326 20.7481 5.50181 20.6073 5.44022C20.4665 5.37863 20.314 5.34836 20.1604 5.35152C20.0067 5.35467 19.8556 5.39119 19.7175 5.45851C19.5794 5.52584 19.4576 5.62237 19.3607 5.74139C19.2637 5.86042 19.1938 5.99909 19.156 6.14777C19.1181 6.29645 19.1131 6.45158 19.1413 6.60239C19.1696 6.75319 19.2303 6.89605 19.3195 7.02105L23.0341 12.2379L21.1968 6.10582ZM6.48541 18.4111C6.43549 18.5562 6.41778 18.7103 6.43352 18.8629C6.44926 19.0155 6.49807 19.1629 6.57656 19.2948C6.65505 19.4266 6.76134 19.5399 6.88807 19.6267C7.01479 19.7135 7.15891 19.7717 7.31043 19.7973L13.6338 20.8644L7.9893 17.8275C7.85428 17.7547 7.70502 17.712 7.55184 17.7025C7.39866 17.6929 7.24524 17.7167 7.10219 17.7722C6.95914 17.8277 6.82989 17.9136 6.72339 18.0239C6.6169 18.1342 6.53569 18.2663 6.48541 18.4111ZM8.82923 9.29393C8.68799 9.4349 8.57919 9.60487 8.51037 9.79204C8.44155 9.97921 8.41437 10.1791 8.43072 10.3778C8.44707 10.5765 8.50655 10.7693 8.60503 10.9427C8.70352 11.1162 8.83865 11.2661 9.00104 11.3822L15.7754 16.2275L10.9213 9.46543C10.805 9.30333 10.6548 9.16845 10.481 9.07014C10.3072 8.97183 10.1141 8.91246 9.91505 8.89614C9.71599 8.87982 9.51575 8.90695 9.32825 8.97564C9.14074 9.04434 8.97046 9.15295 8.82923 9.29393Z" fill="url(#paint1_linear_2145_6655)"/>
<path d="M55.7171 39.6359C55.7171 39.6359 49.4002 41.8732 45.2018 41.8732C40.951 41.8732 38.5645 41.1275 34.4628 41.4258C29.4908 41.7874 28.4221 43.141 21.7848 43.141C15.1475 43.141 12.3136 43.4275 -0.140625 39.1885C-0.140625 39.1885 11.6547 47.0457 28.795 47.2427C45.9354 47.4397 55.7171 39.6359 55.7171 39.6359Z" fill="#472795"/>
</g>
</g>
<defs>
<linearGradient id="paint0_linear_2145_6655" x1="28.0795" y1="9.95461" x2="28.0795" y2="44.5026" gradientUnits="userSpaceOnUse">
<stop offset="0.452083" stop-color="#F89D0E"/>
<stop offset="1" stop-color="#FD3F8D"/>
</linearGradient>
<linearGradient id="paint1_linear_2145_6655" x1="42.6783" y1="37.4998" x2="8.56963" y2="3.32928" gradientUnits="userSpaceOnUse">
<stop stop-color="#FFF23A"/>
<stop offset="0.04" stop-color="#FEE62D"/>
<stop offset="0.12" stop-color="#FED41A"/>
<stop offset="0.2" stop-color="#FDC90F"/>
<stop offset="0.28" stop-color="#FDC60B"/>
<stop offset="0.67" stop-color="#F28F3F"/>
<stop offset="0.89" stop-color="#ED693C"/>
<stop offset="1" stop-color="#E83E39"/>
</linearGradient>
<clipPath id="clip0_2145_6655">
<rect width="150" height="48" fill="white"/>
</clipPath>
<clipPath id="clip1_2145_6655">
<rect width="55.9453" height="47.4872" fill="white" transform="translate(-0.140625 0.492188)"/>
</clipPath>
</defs>
</svg>
