<svg width="20" height="20" viewBox="0 0 20 20" fill="none" xmlns="http://www.w3.org/2000/svg">
<g clip-path="url(#clip0_2832_18)">
<path d="M4.29602 19.0355C4.31859 19.5746 4.76218 20 5.30164 20H14.6979C15.2374 20 15.681 19.5746 15.7035 19.0355L16.3746 4.87012H3.625L4.29602 19.0355ZM12.1253 8.38855C12.1253 8.16284 12.3083 7.97977 12.5342 7.97977H13.188C13.4137 7.97977 13.5969 8.16279 13.5969 8.38855V16.4816C13.5969 16.7073 13.4139 16.8903 13.188 16.8903H12.5342C12.3084 16.8903 12.1253 16.7074 12.1253 16.4816V8.38855ZM9.26406 8.38855C9.26406 8.16284 9.44708 7.97977 9.67284 7.97977H10.3267C10.5524 7.97977 10.7355 8.16279 10.7355 8.38855V16.4816C10.7355 16.7073 10.5525 16.8903 10.3267 16.8903H9.67284C9.44713 16.8903 9.26406 16.7074 9.26406 16.4816V8.38855ZM6.40269 8.38855C6.40269 8.16284 6.58571 7.97977 6.81147 7.97977H7.4654C7.69112 7.97977 7.87418 8.16279 7.87418 8.38855V16.4816C7.87418 16.7073 7.69117 16.8903 7.4654 16.8903H6.81147C6.58576 16.8903 6.40269 16.7074 6.40269 16.4816V8.38855Z" fill="#2A2A2A"/>
<path d="M16.8217 1.0303H12.4869V0.21078C12.4869 0.094398 12.3925 0 12.2761 0H7.72408C7.6077 0 7.51335 0.094398 7.51335 0.21078V1.03025H3.17848C2.82963 1.03025 2.54688 1.31305 2.54688 1.66191V3.64617H17.4533V1.66195C17.4533 1.3131 17.1705 1.0303 16.8217 1.0303Z" fill="#2A2A2A"/>
</g>
<defs>
<clipPath id="clip0_2832_18">
<rect width="20" height="20" fill="white"/>
</clipPath>
</defs>
</svg>
