<svg width="35" height="35" viewBox="0 0 35 35" fill="none" xmlns="http://www.w3.org/2000/svg">
<path d="M17.5 29.8047C16.7844 29.8053 16.0837 29.6003 15.4813 29.2141C13.7724 28.1155 10.4856 25.8611 7.70547 23.1082C4.29365 19.7272 2.56348 16.543 2.56348 13.6418C2.56348 11.6259 3.15957 9.77883 4.2875 8.3009C5.3571 6.89561 6.86801 5.89063 8.57753 5.44741C10.287 5.0042 12.0959 5.14847 13.7136 5.85705C15.1614 6.48186 16.4527 7.53528 17.5 8.93322C18.5473 7.53186 19.8386 6.47844 21.2864 5.85705C22.9041 5.14847 24.713 5.0042 26.4225 5.44741C28.132 5.89063 29.6429 6.89561 30.7125 8.3009C31.8404 9.77883 32.4365 11.6259 32.4365 13.6418C32.4365 16.543 30.7063 19.7258 27.2945 23.1055C24.5144 25.8583 21.229 28.1128 19.5187 29.2113C18.9166 29.5986 18.2159 29.8045 17.5 29.8047ZM10.5383 6.90842C9.9976 6.90793 9.45924 6.97919 8.9373 7.12033C7.62729 7.47999 6.47116 8.2589 5.6458 9.33791C4.74756 10.5151 4.27246 12.0039 4.27246 13.6446C4.27246 16.0727 5.83174 18.8481 8.90791 21.8942C11.5739 24.5369 14.7506 26.7135 16.4049 27.7731C16.7315 27.9817 17.111 28.0926 17.4986 28.0926C17.8862 28.0926 18.2657 27.9817 18.5924 27.7731C20.2467 26.7108 23.4206 24.5342 26.0894 21.8942C29.1655 18.8481 30.7248 16.0727 30.7248 13.6446C30.7248 12.0039 30.2497 10.5178 29.3515 9.33791C28.5261 8.2589 27.37 7.47999 26.06 7.12033C23.7241 6.48596 20.4422 7.14905 18.2342 10.9129C18.1589 11.0415 18.0513 11.1482 17.922 11.2224C17.7927 11.2965 17.6463 11.3355 17.4973 11.3355C17.3482 11.3355 17.2018 11.2965 17.0725 11.2224C16.9432 11.1482 16.8356 11.0415 16.7604 10.9129C15.0254 7.95022 12.6219 6.90842 10.5383 6.90842Z" fill="#F4AB55"/>
</svg>
