<svg width="19" height="19" viewBox="0 0 19 19" fill="none" xmlns="http://www.w3.org/2000/svg">
<path d="M17.846 15.2048L12.7449 10.1001L10.1055 12.7396L15.2102 17.8443C15.6291 18.2632 16.3186 18.2632 16.7375 17.8443L17.846 16.7359C18.2649 16.3133 18.2649 15.62 17.846 15.2048Z" fill="#696969"/>
<path d="M10.2206 11.6015L11.6034 10.2188L10.0279 8.64323C11.5181 6.4968 11.3105 3.52368 9.39765 1.6108C7.25122 -0.535631 3.76281 -0.535631 1.61268 1.6108C-0.537459 3.75723 -0.533752 7.24564 1.61268 9.39577C3.52556 11.3087 6.49868 11.5163 8.64511 10.026L10.2206 11.6015ZM2.68033 8.31329C1.12334 6.7563 1.12334 4.23174 2.68033 2.67845C4.23733 1.12146 6.76188 1.12146 8.31517 2.67845C9.87217 4.23545 9.87217 6.76 8.31517 8.31329C6.76188 9.87029 4.23733 9.87029 2.68033 8.31329Z" fill="#696969"/>
</svg>
