<svg width="190" height="30" viewBox="0 0 190 30" fill="none" xmlns="http://www.w3.org/2000/svg">
<g clip-path="url(#clip0_2145_6879)">
<path d="M30 11.5909L19.0993 10.8742L14.994 0.560791L10.8888 10.8742L0 11.5909L8.3516 18.6823L5.61105 29.4394L14.994 23.5085L24.3771 29.4394L21.6365 18.6823L30 11.5909Z" fill="#F4AB55"/>
</g>
<g clip-path="url(#clip1_2145_6879)">
<path d="M70 11.5909L59.0993 10.8742L54.994 0.560791L50.8888 10.8742L40 11.5909L48.3516 18.6823L45.6111 29.4394L54.994 23.5085L64.3771 29.4394L61.6365 18.6823L70 11.5909Z" fill="#F4AB55"/>
</g>
<g clip-path="url(#clip2_2145_6879)">
<path d="M110 11.5909L99.0993 10.8742L94.994 0.560791L90.8888 10.8742L80 11.5909L88.3516 18.6823L85.6111 29.4394L94.994 23.5085L104.377 29.4394L101.637 18.6823L110 11.5909Z" fill="#F4AB55"/>
</g>
<g clip-path="url(#clip3_2145_6879)">
<path d="M150 11.5909L139.099 10.8742L134.994 0.560791L130.889 10.8742L120 11.5909L128.352 18.6823L125.611 29.4394L134.994 23.5085L144.377 29.4394L141.637 18.6823L150 11.5909Z" fill="#F4AB55"/>
</g>
<g clip-path="url(#clip4_2145_6879)">
<path d="M190 11.5909L179.099 10.8742L174.994 0.560791L170.889 10.8742L160 11.5909L168.352 18.6823L165.611 29.4394L174.994 23.5085L184.377 29.4394L181.637 18.6823L190 11.5909Z" fill="#F4AB55"/>
</g>
<defs>
<clipPath id="clip0_2145_6879">
<rect width="30" height="30" fill="white"/>
</clipPath>
<clipPath id="clip1_2145_6879">
<rect width="30" height="30" fill="white" transform="translate(40)"/>
</clipPath>
<clipPath id="clip2_2145_6879">
<rect width="30" height="30" fill="white" transform="translate(80)"/>
</clipPath>
<clipPath id="clip3_2145_6879">
<rect width="30" height="30" fill="white" transform="translate(120)"/>
</clipPath>
<clipPath id="clip4_2145_6879">
<rect width="30" height="30" fill="white" transform="translate(160)"/>
</clipPath>
</defs>
</svg>
