<svg width="25" height="25" viewBox="0 0 25 25" fill="none" xmlns="http://www.w3.org/2000/svg">
<g clip-path="url(#clip0_2821_31)">
<path d="M10.7664 14.5163L14.2335 12.5048L10.7664 10.4834V14.5163Z" fill="#2A2A2A"/>
<path d="M12.5 0C10.0277 0 7.61099 0.733112 5.55538 2.10663C3.49976 3.48015 1.89761 5.43238 0.951511 7.71646C0.00541602 10.0005 -0.242126 12.5139 0.24019 14.9386C0.722505 17.3634 1.91301 19.5907 3.66117 21.3388C5.40933 23.087 7.63661 24.2775 10.0614 24.7598C12.4861 25.2421 14.9995 24.9946 17.2835 24.0485C19.5676 23.1024 21.5199 21.5002 22.8934 19.4446C24.2669 17.389 25 14.9723 25 12.5C25 9.18479 23.683 6.00537 21.3388 3.66117C18.9946 1.31696 15.8152 0 12.5 0ZM19.079 14.7122C19.0792 15.0391 19.015 15.3629 18.89 15.665C18.765 15.9671 18.5818 16.2416 18.3507 16.4729C18.1196 16.7041 17.8452 16.8876 17.5431 17.0127C17.2411 17.1379 16.9174 17.2023 16.5905 17.2023H8.40955C8.08261 17.2023 7.75889 17.1379 7.45686 17.0127C7.15484 16.8876 6.88044 16.7041 6.64934 16.4729C6.41824 16.2416 6.23497 15.9671 6.11001 15.665C5.98505 15.3629 5.92084 15.0391 5.92106 14.7122V10.2878C5.92084 9.9609 5.98505 9.63713 6.11001 9.33502C6.23497 9.03291 6.41824 8.75839 6.64934 8.52714C6.88044 8.29589 7.15484 8.11244 7.45686 7.98728C7.75889 7.86212 8.08261 7.7977 8.40955 7.7977H16.5905C16.9174 7.7977 17.2411 7.86212 17.5431 7.98728C17.8452 8.11244 18.1196 8.29589 18.3507 8.52714C18.5818 8.75839 18.765 9.03291 18.89 9.33502C19.015 9.63713 19.0792 9.9609 19.079 10.2878V14.7122Z" fill="#2A2A2A"/>
</g>
<defs>
<clipPath id="clip0_2821_31">
<rect width="25" height="25" fill="white"/>
</clipPath>
</defs>
</svg>
